# xmcd
#
# Track frame offsets:
#	150
#	26458
#	53124
#	73911
#	120795
#	147465
#	166854
#	195997
#	220686
#	257152
#
# Disc length: 4113 seconds
# Revision: 0
# Processed by: cddbd v1.5.2PL0 Copyright (c) Steve Scherf et al.
# Submitted via: dBpowerAMP V12.0
#
DISCID=87100f0a
DTITLE=Lazy Eye - Move Me
DYEAR=2013
DGENRE=Blues
TTITLE0=Coming Home
TTITLE1=Move Me
TTITLE2=Slow Down Mumma
TTITLE3=Lately Baby Blues
TTITLE4=Crazy Eyes
TTITLE5=Like A Knife
TTITLE6=Voodoo Blues
TTITLE7=Best Be Gone
TTITLE8=Brother Of Mine
TTITLE9=Do It Right
EXTD=
EXTT0=
EXTT1=
EXTT2=
EXTT3=
EXTT4=
EXTT5=
EXTT6=
EXTT7=
EXTT8=
EXTT9=
PLAYORDER=
